<svg width="20" height="20" viewBox="0 0 20 20" fill="none" xmlns="http://www.w3.org/2000/svg">
<g clip-path="url(#clip0_1_2115)">
<path d="M9.99984 6.6665C9.11578 6.6665 8.26794 7.01769 7.64281 7.64281C7.01769 8.26794 6.6665 9.11578 6.6665 9.99984C6.6665 10.8839 7.01769 11.7317 7.64281 12.3569C8.26794 12.982 9.11578 13.3332 9.99984 13.3332C10.8839 13.3332 11.7317 12.982 12.3569 12.3569C12.982 11.7317 13.3332 10.8839 13.3332 9.99984C13.3332 9.11578 12.982 8.26794 12.3569 7.64281C11.7317 7.01769 10.8839 6.6665 9.99984 6.6665Z" fill="#F9F5FF"/>
<path fill-rule="evenodd" clip-rule="evenodd" d="M6 0C4.4087 0 2.88258 0.632141 1.75736 1.75736C0.632141 2.88258 0 4.4087 0 6L0 14C0 15.5913 0.632141 17.1174 1.75736 18.2426C2.88258 19.3679 4.4087 20 6 20H14C15.5913 20 17.1174 19.3679 18.2426 18.2426C19.3679 17.1174 20 15.5913 20 14V6C20 4.4087 19.3679 2.88258 18.2426 1.75736C17.1174 0.632141 15.5913 0 14 0L6 0ZM5.33333 10C5.33333 8.76232 5.825 7.57534 6.70017 6.70017C7.57534 5.825 8.76232 5.33333 10 5.33333C11.2377 5.33333 12.4247 5.825 13.2998 6.70017C14.175 7.57534 14.6667 8.76232 14.6667 10C14.6667 11.2377 14.175 12.4247 13.2998 13.2998C12.4247 14.175 11.2377 14.6667 10 14.6667C8.76232 14.6667 7.57534 14.175 6.70017 13.2998C5.825 12.4247 5.33333 11.2377 5.33333 10ZM14.6667 5.33333H16V4H14.6667V5.33333Z" fill="#F9F5FF"/>
</g>
<defs>
<clipPath id="clip0_1_2115">
<rect width="20" height="20" fill="white"/>
</clipPath>
</defs>
</svg>
